<?xml version="1.0" encoding="UTF-8"?>
<svg width="841px" height="1256px" viewBox="0 0 841 1256" version="1.1" xmlns="http://www.w3.org/2000/svg" xmlns:xlink="http://www.w3.org/1999/xlink">
    <title>Slice</title>
    <g id="Page-1" stroke="none" stroke-width="1" fill="none" fill-rule="evenodd">
        <g id="bo" transform="translate(11.000000, 749.000000)">
            <path d="M622,454 C707.051851,454 776,385.051851 776,300 C776,214.948149 707.051851,146 622,146 C536.948149,146 468,214.948149 468,300 C468,385.051851 536.948149,454 622,454 Z" id="o3" stroke="#5E5E5E" stroke-width="86" fill="#F5C4C4"></path>
            <g id="b">
                <path d="M197,454 C282.051851,454 351,385.051851 351,300 C351,214.948149 282.051851,146 197,146 C111.948149,146 43,214.948149 43,300 C43,385.051851 111.948149,454 197,454 Z" id="Oval-Copy-4" stroke="#5E5E5E" stroke-width="86"></path>
                <rect id="Rectangle" fill="#5E5E5E" x="0" y="0" width="86" height="340" rx="43"></rect>
            </g>
        </g>
        <g id="no" transform="translate(12.000000, 473.998889)">
            <path d="M621,308.001111 C706.051851,308.001111 775,239.052963 775,154.001111 C775,68.9492599 706.051851,0.00111139203 621,0.00111139203 C535.948149,0.00111139203 467,68.9492599 467,154.001111 C467,239.052963 535.948149,308.001111 621,308.001111 Z" id="o2" stroke="#5E5E5E" stroke-width="86" fill="#99DEFF"></path>
            <g id="n">
                <rect id="Rectangle-Copy" fill="#5E5E5E" x="0" y="113.001111" width="86" height="138" rx="43"></rect>
                <rect id="Rectangle-Copy-2" fill="#5E5E5E" x="308" y="113.001111" width="86" height="276" rx="43"></rect>
                <path d="M350.942976,149.796413 C349.911809,111.797102 334.895632,74.1067432 305.894444,45.1055557 C245.753703,-15.0351852 148.246297,-15.0351852 88.1055557,45.1055557 C58.1380107,75.0731007 43.1030013,114.318534 42.9994779,153.595693" stroke="#5E5E5E" stroke-width="86" stroke-linecap="round"></path>
            </g>
        </g>
        <g id="co" transform="translate(55.000000, 54.000000)" stroke="#5E5E5E" stroke-width="86">
            <path d="M578,308 C663.051851,308 732,239.051851 732,154 C732,68.9481485 663.051851,0 578,0 C492.948149,0 424,68.9481485 424,154 C424,239.051851 492.948149,308 578,308 Z" id="o1" fill="#F7F783"></path>
            <path d="M262.894444,45.1055557 C202.753703,-15.0351852 105.246297,-15.0351852 45.1055557,45.1055557 C-15.0351852,105.246297 -15.0351852,202.753703 45.1055557,262.894444 C105.246297,323.035185 202.753703,323.035185 262.894444,262.894444" id="c" stroke-linecap="round"></path>
        </g>
    </g>
</svg>